<svg id="Calque_1" data-name="Calque 1" xmlns="http://www.w3.org/2000/svg" viewBox="0 0 185 185"><defs><style>.cls-1{fill:#f6bb92;}.cls-2{fill:#c4d4e0;}.cls-3{fill:#e44b4d;}.cls-4{fill:#395166;}.cls-5{fill:#2f4054;}.cls-6{fill:#a6b2bc;}.cls-7{fill:none;stroke:#f9d1b7;stroke-linecap:round;stroke-linejoin:round;stroke-width:4px;}</style></defs><title>2Plan de travail 1</title><path class="cls-1" d="M54.93,7C65,1.7,89.38,6.77,102.73,27.51s13.6,45.17.55,54.57-34.45.2-47.8-20.54S47.15,11,54.93,7Z"/><g id="Flat"><path class="cls-2" d="M178.43,85.32a9.78,9.78,0,0,0-13.3-3.79l-8.71,4.86a23.42,23.42,0,0,0-7.95,7.25l-2,2.91a23.07,23.07,0,0,1-3.55,4.09,23.42,23.42,0,0,1-18.41,6l-6.47-.73,12.69,22.78,1.39-4.92a21.06,21.06,0,0,1,18.07-15.17l3.75-.39a20.9,20.9,0,0,0,8.07-2.55l12.62-7a9.77,9.77,0,0,0,3.78-13.3Zm-8.8,6.76a2.31,2.31,0,0,1-1.23-3.59,2.18,2.18,0,0,1,1.6-.93,2.34,2.34,0,0,1,1.85,4,2.13,2.13,0,0,1-2.12.54Z"/><path class="cls-3" d="M30.64,149.72l2.67,5.65a42.1,42.1,0,0,0,31.62,23.57l4.13.63a58.42,58.42,0,0,0,49.78-16h0A42.07,42.07,0,0,0,129.25,120h0Z"/><path class="cls-4" d="M98,163.62h0a77.26,77.26,0,0,1-11.92,3.43,76.08,76.08,0,0,1-13.87,1.52C50,169,31.56,159,28.41,143.46c-3.78-18.71,15.9-38.48,44-44.16s53.89,4.88,57.68,23.6C133.27,138.81,119.5,155.5,98,163.62Z"/><path class="cls-5" d="M98,163.62h0a77.26,77.26,0,0,1-11.92,3.43,76.08,76.08,0,0,1-13.87,1.52c-14.29-.61-25.65-7-27.79-16.9C41.61,138.62,56,124.43,76.49,120s39.45,2.56,42.27,15.62C121,146.1,112.22,157.31,98,163.62Z"/><circle class="cls-6" cx="115.28" cy="114.69" r="2.3"/><circle class="cls-6" cx="122.89" cy="121.64" r="2.3"/></g><path class="cls-1" d="M29.5,10.1c11.36-.43,31.2,14.62,34.35,39.09s-7.13,46.63-23,49.51S9.7,84.08,6.55,59.62,20.73,10.44,29.5,10.1Z"/><path class="cls-7" d="M31.86,14.67s15.21,3,20.6,21.51"/><path class="cls-7" d="M55.63,42.35s1.51,6.23,1.37,8.28"/><path class="cls-7" d="M61.31,10.23S76.38,6.55,89.08,21"/><path class="cls-7" d="M94.56,25.27s4,5,4.73,6.92"/></svg>